<svg width="1430" height="197" viewBox="0 0 1430 197" fill="none" xmlns="http://www.w3.org/2000/svg">
<path d="M-12.55 98.5C-12.55 161.14 22.28 196.24 82.49 196.24C141.62 196.24 177.26 156.55 177.26 98.5C177.26 40.99 141.62 0.759997 82.49 0.759997C22.55 0.759997 -12.55 40.99 -12.55 98.5ZM122.45 147.1C114.08 158.17 100.58 164.11 82.49 164.11C65.21 164.11 50.36 158.44 41.72 146.29C34.16 135.49 29.84 119.02 29.84 98.5C29.84 79.06 34.7 59.08 43.07 49.09C51.71 38.29 65.21 32.89 83.57 32.89C101.12 32.89 114.08 38.56 122.45 49.63C130.28 60.16 134.87 79.06 134.87 98.5C134.87 118.21 131.09 135.49 122.45 147.1ZM275.124 58V131.44C275.124 156.55 264.594 167.62 250.284 167.62C241.644 167.62 236.244 166.27 231.654 161.14C226.524 155.47 225.714 148.45 225.714 134.14V58H187.104V136.03C187.104 156.82 189.534 171.4 199.254 181.39C208.974 191.92 220.584 196.24 237.594 196.24C255.144 196.24 268.374 188.41 275.664 174.1V193H312.384V58H275.124ZM410.736 54.76C387.246 54.76 371.856 64.21 366.456 83.38V58H329.196V193H366.996V132.79C366.996 101.2 380.226 88.24 406.416 88.24C408.306 88.24 410.466 88.51 413.436 88.78L414.246 54.76H410.736ZM479.675 130.36C480.755 174.91 516.665 196.24 561.215 196.24C603.605 196.24 641.135 181.39 641.135 137.92C640.055 98.23 613.865 86.89 568.235 78.52C539.885 73.12 526.115 67.72 526.115 54.22C526.115 39.91 538.535 31.81 558.245 31.81C580.655 31.81 592.805 43.15 593.885 67.72L635.195 61.24C630.875 19.12 602.525 0.759997 558.515 0.759997C520.445 0.759997 484.805 19.12 484.805 56.11C484.805 91.21 510.995 104.71 551.765 113.62L563.375 116.05C589.835 121.45 597.935 123.34 599.555 139C599.555 157.09 584.975 164.92 562.295 164.92C537.185 164.92 521.255 151.42 521.255 125.77L479.675 130.36ZM780.516 135.22C781.056 107.95 774.846 87.43 762.156 73.66C750.546 61.51 733.536 54.76 712.746 54.76C692.226 54.76 675.756 60.7 663.606 72.58C650.916 84.73 644.436 102.28 644.436 125.23C644.436 147.91 650.916 165.73 663.876 178.42C675.486 190.03 692.496 196.24 713.016 196.24C747.846 196.24 770.526 181.12 778.356 150.88L741.636 147.64C738.666 161.95 730.026 169.51 713.016 169.51C692.766 169.51 681.696 157.9 681.696 135.22H780.516ZM688.716 90.94C693.846 84.19 701.676 80.95 712.746 80.95C722.466 80.95 729.216 83.38 734.346 88.78C738.666 93.64 741.366 100.39 742.176 109.3H681.966C682.776 101.74 685.206 95.53 688.716 90.94ZM871.635 54.76C848.145 54.76 832.755 64.21 827.355 83.38V58H790.095V193H827.895V132.79C827.895 101.2 841.125 88.24 867.315 88.24C869.205 88.24 871.365 88.51 874.335 88.78L875.145 54.76H871.635ZM922.644 193H965.844L1012.28 58H972.054L955.044 117.4C950.454 135.22 946.674 148.72 944.244 157.63C941.274 145.48 937.494 131.98 933.444 117.4L916.974 58H876.204L922.644 193ZM1015.16 193H1052.96V58H1015.16V193ZM1015.16 40.18H1052.96V1.29999H1015.16V40.18ZM1062.67 125.5C1062.67 170.05 1088.05 196.24 1132.06 196.24C1167.43 196.24 1190.38 176.26 1194.7 148.72L1157.98 144.94C1154.47 160.33 1145.83 168.16 1132.06 168.16C1110.46 168.16 1103.71 154.93 1103.71 125.5C1103.71 96.61 1110.46 82.84 1132.06 82.84C1148.26 82.84 1155.01 92.83 1157.98 109.84L1193.89 103.63C1188.22 73.39 1167.7 54.76 1132.06 54.76C1088.32 54.76 1062.67 83.65 1062.67 125.5ZM1330.54 135.22C1331.08 107.95 1324.87 87.43 1312.18 73.66C1300.57 61.51 1283.56 54.76 1262.77 54.76C1242.25 54.76 1225.78 60.7 1213.63 72.58C1200.94 84.73 1194.46 102.28 1194.46 125.23C1194.46 147.91 1200.94 165.73 1213.9 178.42C1225.51 190.03 1242.52 196.24 1263.04 196.24C1297.87 196.24 1320.55 181.12 1328.38 150.88L1291.66 147.64C1288.69 161.95 1280.05 169.51 1263.04 169.51C1242.79 169.51 1231.72 157.9 1231.72 135.22H1330.54ZM1238.74 90.94C1243.87 84.19 1251.7 80.95 1262.77 80.95C1272.49 80.95 1279.24 83.38 1284.37 88.78C1288.69 93.64 1291.39 100.39 1292.2 109.3H1231.99C1232.8 101.74 1235.23 95.53 1238.74 90.94ZM1331.2 152.23C1333.36 182.47 1359.55 196.24 1392.76 196.24C1428.4 196.24 1452.97 183.82 1452.97 153.58C1452.97 133.87 1440.82 122.53 1426.51 117.4C1419.22 114.7 1410.04 112 1398.97 109.57C1379.53 104.98 1371.16 102.28 1371.16 93.1C1371.16 84.19 1379.53 79.6 1391.41 79.6C1405.45 79.6 1413.82 86.62 1414.63 101.47L1449.46 95.53C1446.22 66.64 1423.54 54.76 1390.87 54.76C1360.63 54.76 1335.52 67.45 1335.52 96.07C1336.6 122.8 1354.96 130.9 1385.2 138.19C1408.96 144.13 1415.71 146.56 1416.79 155.47C1416.79 165.46 1408.69 171.13 1393.57 171.13C1377.64 171.13 1367.92 163.03 1367.11 147.64L1331.2 152.23Z" fill="white"/>
</svg>
