<svg width="22" height="22" viewBox="0 0 22 22" fill="none" xmlns="http://www.w3.org/2000/svg">
<path d="M10.751 21.3838C16.4114 21.3838 21.0001 16.7952 21.0001 11.1349C21.0001 5.47467 16.4114 0.886108 10.751 0.886108C5.09062 0.886108 0.501953 5.47467 0.501953 11.1349C0.501953 16.7952 5.09062 21.3838 10.751 21.3838Z" stroke="white" stroke-miterlimit="10"/>
<path d="M8.66664 12.6694L8.5542 15.1869L10.1766 13.8137L8.66664 12.6694Z" fill="white"/>
<path d="M15.0521 6.65724L4.73886 10.5768C4.44569 10.6892 4.45372 11.1028 4.75091 11.2032L7.40954 12.1028L13.4658 8.46439L8.66657 12.669L12.4015 15.5043C12.7911 15.7974 13.3533 15.6006 13.4698 15.1268L15.4899 7.0508C15.5541 6.78977 15.3011 6.56488 15.0521 6.65724Z" fill="white"/>
</svg>
