<svg width="27" height="23" viewBox="0 0 27 23" fill="none" xmlns="http://www.w3.org/2000/svg">
<path d="M25.8481 3.77935C25.0528 4.13825 24.1821 4.35243 23.3231 4.49714C23.7294 4.42768 24.3273 3.69831 24.5652 3.3973C24.9309 2.94579 25.2328 2.4306 25.4011 1.87489C25.4243 1.82859 25.4417 1.77649 25.3953 1.74176C25.3431 1.7186 25.3024 1.73018 25.2618 1.75333C24.3098 2.26273 23.3231 2.6332 22.2724 2.89369C22.1854 2.91685 22.1215 2.89369 22.0635 2.8416C21.9764 2.74898 21.8951 2.65636 21.8023 2.57532C21.3611 2.19906 20.8851 1.90963 20.3511 1.68966C19.6487 1.40602 18.8825 1.28445 18.1279 1.33076C17.3907 1.37707 16.671 1.58546 16.0209 1.92699C15.3649 2.26852 14.7845 2.74319 14.3201 3.31047C13.8383 3.90091 13.4842 4.60134 13.3043 5.34228C13.1302 6.05428 13.1418 6.7605 13.2521 7.48408C13.2695 7.60564 13.2579 7.61721 13.1476 7.60564C9.0379 6.99783 5.6364 5.53331 2.8676 2.39008C2.7457 2.25116 2.68185 2.25116 2.58317 2.40166C1.37581 4.20771 1.96208 7.1136 3.47128 8.54339C3.67444 8.73442 3.8776 8.92544 4.10398 9.0991C4.02272 9.11647 3.01852 9.00648 2.1188 8.54339C1.99691 8.46814 1.93886 8.50866 1.92725 8.64759C1.91564 8.8444 1.93305 9.02385 1.96208 9.23224C2.19426 11.0672 3.46547 12.7633 5.21266 13.4232C5.42163 13.51 5.64801 13.5853 5.87439 13.6258C5.47967 13.7126 5.06755 13.7763 3.92984 13.6837C3.78473 13.6548 3.73249 13.73 3.78473 13.8631C4.63801 16.1902 6.48968 16.8848 7.87118 17.2784C8.05692 17.3132 8.24267 17.3132 8.42842 17.3537C8.41681 17.3711 8.4052 17.3711 8.39359 17.3884C7.93503 18.0888 6.34456 18.604 5.60157 18.8645C4.2549 19.3334 2.78633 19.5476 1.3642 19.4086C1.13782 19.3739 1.08558 19.3797 1.02753 19.4086C0.963684 19.4492 1.02173 19.5013 1.09139 19.5592C1.38162 19.7502 1.67185 19.918 1.97369 20.0801C2.87921 20.5606 3.81955 20.9368 4.80634 21.2089C9.90279 22.6098 15.6378 21.5794 19.463 17.7936C22.464 14.8183 23.5204 10.7141 23.5204 6.6042C23.5204 6.44212 23.712 6.35529 23.8223 6.26846C24.6059 5.68381 25.2328 4.98339 25.819 4.20192C25.9526 4.02826 25.9526 3.87197 25.9526 3.8083C25.9526 3.79672 25.9526 3.78514 25.9526 3.78514C25.9526 3.71568 25.9467 3.73304 25.8481 3.77935Z" stroke="white" stroke-miterlimit="10"/>
</svg>
