<svg width="28" height="23" viewBox="0 0 28 23" fill="none" xmlns="http://www.w3.org/2000/svg">
<path d="M20.4808 22.3838C19.9336 21.635 19.46 20.8441 19.0443 20.0056C19.3074 19.8949 19.5652 19.7895 19.8178 19.6734C20.0757 19.5522 20.3335 19.4256 20.5861 19.2991C20.8387 19.1725 21.0807 19.0354 21.3228 18.8772C21.3017 18.8561 21.2912 18.8403 21.2807 18.8245C21.1281 18.6979 20.9702 18.5767 20.8176 18.4554C20.7703 18.4185 20.7334 18.4132 20.6808 18.4396C20.0388 18.7454 19.3811 19.0038 18.7075 19.22C18.0339 19.4362 17.3551 19.6049 16.6605 19.7262C16.2659 19.7947 15.8659 19.858 15.466 19.8896C15.1555 19.916 14.8451 19.9371 14.5346 19.9476C14.2136 19.9582 13.8926 19.9687 13.5664 19.9635C13.2822 19.9582 12.9981 19.9318 12.7139 19.9107C12.314 19.8844 11.9141 19.8264 11.5141 19.7684C11.0405 19.6945 10.5722 19.5944 10.1091 19.4783C9.11985 19.2252 8.16214 18.8772 7.236 18.4448C7.16759 18.4132 7.12023 18.4185 7.06761 18.4659C6.93606 18.5767 6.79924 18.6821 6.66769 18.7876C6.64138 18.8087 6.61507 18.835 6.57297 18.872C7.30441 19.3202 8.0569 19.684 8.84096 19.9898C8.81465 20.2113 7.80431 21.9039 7.41491 22.3785C7.36755 22.3627 7.30967 22.3521 7.25705 22.331C6.4151 22.0621 5.58895 21.7405 4.77857 21.3714C3.94189 20.9917 3.13678 20.554 2.35798 20.0689C1.79493 19.7209 1.24241 19.3412 0.710928 18.9458C0.658307 18.9036 0.621472 18.8667 0.621472 18.7929C0.616209 18.6505 0.595161 18.5134 0.589899 18.371C0.56885 18.081 0.553064 17.7857 0.537277 17.4957C0.526753 17.3797 0.526753 17.2531 0.526753 17.1319C0.526753 16.7206 0.521491 16.304 0.526753 15.8927C0.532015 15.6185 0.532015 15.3496 0.553064 15.0754C0.584636 14.6219 0.621472 14.1632 0.674093 13.7097C0.768812 12.8818 0.916152 12.0592 1.10033 11.2472C1.28977 10.4299 1.52656 9.62311 1.80546 8.82689C2.05278 8.12558 2.33167 7.44009 2.64214 6.76515C3.14731 5.66836 3.7314 4.61377 4.37865 3.59608C4.43653 3.50116 4.49968 3.41152 4.55756 3.31661C4.58914 3.26388 4.63123 3.23224 4.68385 3.20587C5.15745 3.0055 5.62578 2.79985 6.10464 2.61003C6.68874 2.37801 7.28336 2.18291 7.88851 2.0089C8.5989 1.80326 9.31455 1.63979 10.0407 1.50797C10.1407 1.49215 10.1407 1.49215 10.1881 1.57652C10.4196 1.99836 10.6248 2.43074 10.8195 2.87368C10.8616 2.96859 10.8616 2.96859 10.9616 2.95277C11.2826 2.91059 11.5983 2.8684 11.9193 2.83149C12.1193 2.8104 12.3192 2.79458 12.5192 2.78404C12.856 2.76822 13.198 2.7524 13.5348 2.74185C13.7137 2.73658 13.8926 2.72603 14.0663 2.73131C14.4031 2.73658 14.7451 2.7524 15.0819 2.76822C15.6028 2.79458 16.1238 2.85258 16.6447 2.91059C16.7395 2.92113 16.8394 2.93695 16.9342 2.95277C17.0341 2.96332 17.0289 2.96332 17.071 2.87895C17.2288 2.5362 17.392 2.18819 17.5498 1.84544C17.5972 1.75053 17.6498 1.65561 17.7024 1.5607C17.7445 1.48688 17.755 1.48688 17.8287 1.49742C18.0445 1.53961 18.2549 1.58179 18.4707 1.62398C19.3653 1.80853 20.244 2.05109 21.107 2.35165C21.8227 2.59948 22.5278 2.87895 23.2119 3.20587C23.254 3.22697 23.2908 3.2586 23.3119 3.29552C23.7065 3.88609 24.0802 4.48721 24.4169 5.1147C24.6748 5.59454 24.9274 6.08493 25.1642 6.57532C25.4957 7.26081 25.7851 7.96739 26.0377 8.68979C26.306 9.43856 26.5376 10.2031 26.727 10.9783C26.8796 11.611 27.0112 12.2491 27.1059 12.8924C27.1638 13.2878 27.2164 13.6833 27.2585 14.0788C27.2901 14.3846 27.3059 14.6905 27.3269 14.991C27.3532 15.3549 27.369 15.724 27.369 16.0878C27.369 16.2618 27.3901 16.4358 27.3848 16.6098C27.3795 16.8999 27.369 17.1899 27.3585 17.4746C27.348 17.7119 27.3374 17.9439 27.3164 18.1759C27.3006 18.3816 27.2795 18.5925 27.2638 18.7981C27.2585 18.8561 27.2374 18.893 27.1901 18.9194C26.9059 19.1198 26.6323 19.3254 26.3429 19.5205C25.7167 19.9529 25.0642 20.3484 24.3906 20.7122C23.5013 21.1921 22.5804 21.6139 21.6333 21.9619C21.2912 22.0885 20.9439 22.2045 20.5966 22.3205C20.5808 22.3574 20.5335 22.3679 20.4808 22.3838ZM11.9193 12.9398C11.9246 12.75 11.9035 12.5285 11.8562 12.3176C11.6667 11.4687 11.2195 10.8095 10.4249 10.4193C9.98811 10.2031 9.51978 10.1504 9.04618 10.2506C8.53575 10.3561 8.11478 10.625 7.77274 11.0152C7.31493 11.5425 7.09392 12.1647 7.05709 12.8607C7.0413 13.1666 7.07813 13.4671 7.1518 13.7571C7.31493 14.3741 7.6254 14.9014 8.13583 15.2863C8.80412 15.7925 9.54082 15.9138 10.3249 15.5921C10.93 15.3443 11.351 14.8908 11.6299 14.3055C11.8299 13.8784 11.9193 13.4302 11.9193 12.9398ZM18.3865 15.7609C18.7549 15.7556 19.0706 15.6871 19.3705 15.5394C19.8862 15.2863 20.2598 14.8908 20.5177 14.3794C20.8176 13.7888 20.9071 13.1613 20.8176 12.5074C20.7282 11.8694 20.4651 11.3105 20.002 10.8623C19.5021 10.3824 18.9075 10.1504 18.2076 10.2137C17.9497 10.2348 17.7077 10.3033 17.4762 10.4193C16.9078 10.6988 16.5079 11.147 16.2501 11.7165C15.9975 12.286 15.9238 12.8766 16.0291 13.4882C16.1396 14.1579 16.4342 14.7379 16.9499 15.1914C17.3762 15.5552 17.8656 15.7503 18.3865 15.7609Z" stroke="white" stroke-miterlimit="10"/>
</svg>
