<svg width="24" height="23" viewBox="0 0 24 23" fill="none" xmlns="http://www.w3.org/2000/svg">
<path d="M12.1635 22.3774C10.6098 22.3774 9.05554 22.3936 7.50183 22.3744C3.91654 22.3297 1.02195 19.4389 0.996107 15.8555C0.973303 12.7461 0.973303 9.63628 0.996107 6.52693C1.02296 2.93485 3.9434 0.0293474 7.53173 0.0116C10.6138 -0.00411916 13.6964 -0.00361209 16.7785 0.0116C20.3592 0.0288403 23.2989 2.92623 23.3384 6.51375C23.3734 9.69053 23.3704 12.8683 23.3359 16.0451C23.3035 19.0515 20.8994 21.7927 17.9314 22.2679C17.4834 22.3394 17.0253 22.3713 16.5712 22.3754C15.1021 22.3886 13.6326 22.3804 12.163 22.3804C12.1635 22.3789 12.1635 22.3774 12.1635 22.3774ZM2.30607 11.2183C2.29847 11.2183 2.29087 11.2183 2.28327 11.2183C2.28327 12.6802 2.27566 14.1421 2.28833 15.604C2.29188 16.0076 2.31519 16.4183 2.39678 16.8118C2.92684 19.3659 5.06434 21.0803 7.7243 21.0874C10.6797 21.095 13.6356 21.0894 16.591 21.0889C17.3329 21.0889 18.0601 20.9855 18.7386 20.6787C20.9602 19.6747 22.0264 17.9015 22.0513 15.5046C22.0817 12.5813 22.0629 9.65707 22.0533 6.73381C22.0518 6.33931 22.0194 5.93721 21.9378 5.55184C21.4001 3.02258 19.2687 1.30767 16.6675 1.3031C13.6695 1.29803 10.6716 1.29956 7.67413 1.30564C7.34626 1.30615 7.01535 1.33556 6.69153 1.38525C4.35843 1.74273 2.41249 3.842 2.31924 6.20038C2.25286 7.87015 2.30607 9.54551 2.30607 11.2183Z" fill="white"/>
<path d="M12.1906 5.71658C15.2175 5.74193 17.6397 8.22201 17.6154 11.2715C17.5916 14.2475 15.0968 16.7088 12.1414 16.6713C9.107 16.6333 6.6614 14.1557 6.69738 11.1559C6.73387 8.13378 9.20024 5.69122 12.1906 5.71658ZM16.3171 11.1843C16.311 8.87105 14.4457 7.00352 12.1496 7.01163C9.85244 7.01975 7.98707 8.89844 7.99062 11.201C7.99417 13.5107 9.8793 15.3833 12.1916 15.3737C14.471 15.3646 16.3232 13.4834 16.3171 11.1843Z" fill="white"/>
<path d="M18.2778 6.77586C17.1026 6.78195 16.1995 5.89052 16.1945 4.71919C16.1894 3.53722 17.0691 2.64072 18.2443 2.63058C19.387 2.62043 20.3534 3.55446 20.362 4.67761C20.3712 5.84286 19.4499 6.76978 18.2778 6.77586ZM18.2626 5.45596C18.7151 5.4514 19.0379 5.13753 19.0394 4.70195C19.0404 4.28109 18.674 3.92309 18.2418 3.92259C17.8207 3.92208 17.4553 4.2963 17.4644 4.71869C17.4735 5.1426 17.8181 5.46053 18.2626 5.45596Z" fill="white"/>
</svg>
