<svg width="23" height="23" viewBox="0 0 23 23" fill="none" xmlns="http://www.w3.org/2000/svg">
<path d="M22.9312 11.2181C22.9312 17.381 17.9178 22.3657 11.7379 22.3837C5.54331 22.4017 0.462953 17.2742 0.547926 11.0297C0.629522 5.01364 5.60071 -0.0385806 11.847 0.000222038C17.9431 0.0384624 22.9312 5.06875 22.9312 11.2181ZM1.90693 11.1923C1.96489 16.7984 6.44706 21.0824 11.7677 21.0729C16.9398 21.0633 21.5379 16.8749 21.566 11.2108C21.593 5.75595 17.1896 1.34032 11.6867 1.31951C6.36715 1.29927 1.92719 5.78182 1.90693 11.1923Z" fill="white"/>
<path d="M13.0085 19.0641C11.7874 19.0641 10.6073 19.0641 9.40366 19.0641C9.40366 16.4256 9.40366 13.8033 9.40366 11.1551C8.81617 11.1551 8.25175 11.1551 7.67494 11.1551C7.67494 10.2565 7.67494 9.38484 7.67494 8.47551C8.04804 8.47551 8.41269 8.47383 8.77734 8.47608C9.49201 8.47945 9.39353 8.516 9.40197 7.84848C9.41098 7.15341 9.38284 6.4544 9.44249 5.76326C9.55278 4.48671 10.5899 3.44073 11.8774 3.344C12.9883 3.26021 14.1059 3.26583 15.2201 3.23603C15.7344 3.22253 15.7344 3.22703 15.7344 3.74552C15.7344 4.40404 15.7344 5.06256 15.7344 5.72052C15.7344 5.8015 15.7344 5.88192 15.7344 5.98146C15.605 5.98708 15.4953 5.99552 15.3855 5.99608C14.8914 5.99777 14.3968 5.98877 13.9033 5.99945C13.304 6.01239 13.0119 6.31268 13.0057 6.91103C13.0007 7.35248 13.0136 7.79394 13.0052 8.23539C13.0018 8.40859 13.0513 8.4682 13.2331 8.46539C13.9815 8.45527 14.7305 8.46145 15.4789 8.46145C15.56 8.46145 15.641 8.46145 15.7637 8.46145C15.6494 9.36854 15.538 10.252 15.4249 11.1473C14.614 11.1473 13.8222 11.1473 13.0074 11.1473C13.0085 13.7904 13.0085 16.4199 13.0085 19.0641Z" fill="white"/>
</svg>
