<svg width="39" height="31" viewBox="0 0 39 31" fill="none" xmlns="http://www.w3.org/2000/svg">
<path d="M28.0776 29.791C27.3492 28.7945 26.7189 27.7418 26.1657 26.6259C26.5158 26.4786 26.859 26.3382 27.1952 26.1838C27.5383 26.0224 27.8815 25.854 28.2177 25.6855C28.5538 25.5171 28.876 25.3346 29.1982 25.1241C29.1702 25.096 29.1561 25.075 29.1421 25.0539C28.939 24.8855 28.7289 24.7241 28.5258 24.5627C28.4628 24.5135 28.4138 24.5065 28.3437 24.5416C27.4893 24.9486 26.6139 25.2925 25.7174 25.5803C24.821 25.868 23.9175 26.0926 22.9931 26.254C22.4678 26.3452 21.9355 26.4294 21.4033 26.4715C20.9901 26.5066 20.5769 26.5347 20.1637 26.5487C19.7364 26.5628 19.3092 26.5768 18.875 26.5698C18.4968 26.5628 18.1186 26.5277 17.7404 26.4996C17.2082 26.4645 16.6759 26.3873 16.1436 26.3101C15.5133 26.2119 14.89 26.0785 14.2737 25.9241C12.957 25.5873 11.6824 25.1241 10.4498 24.5486C10.3587 24.5065 10.2957 24.5135 10.2257 24.5767C10.0506 24.7241 9.8685 24.8644 9.69341 25.0048C9.6584 25.0329 9.62338 25.0679 9.56735 25.1171C10.5408 25.7136 11.5423 26.1978 12.5859 26.6049C12.5508 26.8996 11.2062 29.1524 10.6879 29.784C10.6249 29.7629 10.5478 29.7489 10.4778 29.7208C9.35725 29.3629 8.25769 28.9348 7.17916 28.4436C6.0656 27.9383 4.99406 27.3558 3.95754 26.7101C3.20817 26.247 2.4728 25.7417 1.76545 25.2153C1.69541 25.1592 1.64639 25.1101 1.64639 25.0118C1.63938 24.8223 1.61137 24.6399 1.60437 24.4504C1.57635 24.0644 1.55534 23.6714 1.53433 23.2854C1.52032 23.131 1.52032 22.9626 1.52032 22.8012C1.52032 22.2538 1.51332 21.6993 1.52032 21.1519C1.52733 20.787 1.52733 20.4291 1.55534 20.0642C1.59736 19.4606 1.64639 18.8501 1.71642 18.2465C1.84249 17.1447 2.03858 16.0499 2.28371 14.9691C2.53583 13.8814 2.85099 12.8076 3.22218 11.7479C3.55134 10.8145 3.92253 9.90219 4.33573 9.00389C5.00807 7.54416 5.78546 6.14057 6.64689 4.78611C6.72393 4.65979 6.80797 4.54048 6.88501 4.41416C6.92703 4.34398 6.98306 4.30187 7.05309 4.26678C7.68341 4.0001 8.30672 3.7264 8.94404 3.47376C9.72143 3.16497 10.5128 2.9053 11.3182 2.67371C12.2637 2.40001 13.2162 2.18246 14.1827 2.00701C14.3157 1.98595 14.3157 1.98595 14.3788 2.09824C14.6869 2.65968 14.96 3.23515 15.2192 3.82465C15.2752 3.95098 15.2752 3.95098 15.4083 3.92992C15.8355 3.87378 16.2557 3.81764 16.6829 3.76851C16.949 3.74044 17.2152 3.71938 17.4813 3.70535C17.9295 3.68429 18.3848 3.66324 18.833 3.6492C19.0711 3.64219 19.3092 3.62815 19.5403 3.63517C19.9886 3.64219 20.4438 3.66324 20.892 3.68429C21.5854 3.71938 22.2787 3.79658 22.9721 3.87378C23.0981 3.88781 23.2312 3.90887 23.3572 3.92992C23.4903 3.94396 23.4833 3.94396 23.5393 3.83167C23.7494 3.37551 23.9666 2.91232 24.1767 2.45616C24.2397 2.32983 24.3097 2.20351 24.3798 2.07719C24.4358 1.97894 24.4498 1.97894 24.5478 1.99297C24.835 2.04912 25.1151 2.10526 25.4023 2.1614C26.5929 2.40703 27.7625 2.72986 28.911 3.12988C29.8635 3.45972 30.802 3.83167 31.7124 4.26678C31.7685 4.29485 31.8175 4.33696 31.8455 4.38609C32.3708 5.1721 32.868 5.97214 33.3162 6.80728C33.6594 7.44591 33.9956 8.09858 34.3107 8.75124C34.752 9.66358 35.1371 10.604 35.4733 11.5654C35.8305 12.562 36.1386 13.5796 36.3908 14.6112C36.5939 15.4534 36.769 16.3025 36.895 17.1587C36.9721 17.6851 37.0421 18.2114 37.0981 18.7378C37.1401 19.1448 37.1612 19.5518 37.1892 19.9519C37.2242 20.4361 37.2452 20.9274 37.2452 21.4116C37.2452 21.6432 37.2732 21.8748 37.2662 22.1064C37.2592 22.4924 37.2452 22.8784 37.2312 23.2573C37.2172 23.5731 37.2032 23.8819 37.1752 24.1907C37.1542 24.4644 37.1261 24.7451 37.1051 25.0188C37.0981 25.096 37.0701 25.1451 37.0071 25.1802C36.6289 25.4469 36.2647 25.7206 35.8795 25.9803C35.0461 26.5557 34.1777 27.0821 33.2812 27.5663C32.0976 28.205 30.872 28.7664 29.6114 29.2296C29.1562 29.398 28.6939 29.5524 28.2317 29.7068C28.2107 29.7559 28.1476 29.77 28.0776 29.791ZM16.6829 17.2219C16.6899 16.9692 16.6619 16.6745 16.5989 16.3938C16.3467 15.2639 15.7514 14.3866 14.6939 13.8673C14.1126 13.5796 13.4893 13.5094 12.859 13.6427C12.1797 13.7831 11.6194 14.141 11.1641 14.6603C10.5548 15.3621 10.2607 16.1903 10.2117 17.1166C10.1907 17.5237 10.2397 17.9237 10.3377 18.3097C10.5548 19.1308 10.9681 19.8326 11.6474 20.3449C12.5368 21.0186 13.5173 21.18 14.5608 20.7519C15.3663 20.4221 15.9265 19.8185 16.2977 19.0395C16.5639 18.4711 16.6829 17.8746 16.6829 17.2219ZM25.2902 20.9765C25.7805 20.9695 26.2007 20.8782 26.5999 20.6817C27.2862 20.3449 27.7835 19.8185 28.1266 19.1378C28.5258 18.3518 28.6449 17.5166 28.5258 16.6464C28.4068 15.7973 28.0566 15.0534 27.4403 14.4568C26.775 13.8182 25.9836 13.5094 25.0521 13.5936C24.7089 13.6217 24.3868 13.7129 24.0786 13.8673C23.3222 14.2393 22.79 14.8358 22.4468 15.5937C22.1106 16.3517 22.0126 17.1377 22.1526 17.9518C22.2997 18.843 22.6919 19.615 23.3783 20.2186C23.9455 20.7028 24.5969 20.9625 25.2902 20.9765Z" stroke="black" stroke-width="2" stroke-miterlimit="10"/>
</svg>
