<svg width="30" height="30" viewBox="0 0 30 30" fill="none" xmlns="http://www.w3.org/2000/svg">
<path d="M29.8993 14.9304C29.8993 23.1327 23.2269 29.767 15.0019 29.791C6.7574 29.8149 -0.00414961 22.9905 0.108942 14.6797C0.21754 6.67275 6.83379 -0.0513477 15.1472 0.000295515C23.2606 0.0511903 29.8993 6.7461 29.8993 14.9304ZM1.91766 14.896C1.99481 22.3573 7.96022 28.059 15.0416 28.0463C21.9252 28.0336 28.0449 22.4591 28.0823 14.9207C28.1183 7.66071 22.2577 1.78386 14.9337 1.75617C7.85386 1.72922 1.94463 7.69514 1.91766 14.896Z" fill="black"/>
<path d="M16.693 25.3728C15.0678 25.3728 13.4972 25.3728 11.8952 25.3728C11.8952 21.8611 11.8952 18.3711 11.8952 14.8466C11.1133 14.8466 10.3621 14.8466 9.59443 14.8466C9.59443 13.6506 9.59443 12.4905 9.59443 11.2802C10.091 11.2802 10.5763 11.278 11.0616 11.281C12.0128 11.2855 11.8817 11.3341 11.893 10.4457C11.905 9.52061 11.8675 8.59029 11.9469 7.67044C12.0937 5.97145 13.474 4.57933 15.1876 4.45059C16.666 4.33908 18.1535 4.34656 19.6364 4.30689C20.3209 4.28893 20.3209 4.29492 20.3209 4.98499C20.3209 5.86143 20.3209 6.73787 20.3209 7.61355C20.3209 7.72133 20.3209 7.82836 20.3209 7.96084C20.1487 7.96832 20.0026 7.97955 19.8566 7.9803C19.199 7.98254 18.5407 7.97057 17.8838 7.98479C17.0862 8.002 16.6975 8.40168 16.6893 9.19803C16.6825 9.78556 16.6997 10.3731 16.6885 10.9606C16.684 11.1912 16.7499 11.2705 16.9918 11.2668C17.9879 11.2533 18.9848 11.2615 19.9809 11.2615C20.0888 11.2615 20.1966 11.2615 20.3599 11.2615C20.2078 12.4688 20.0595 13.6446 19.909 14.8361C18.8298 14.8361 17.776 14.8361 16.6915 14.8361C16.693 18.3538 16.693 21.8536 16.693 25.3728Z" fill="black"/>
</svg>
