<svg width="31" height="30" viewBox="0 0 31 30" fill="none" xmlns="http://www.w3.org/2000/svg">
<path d="M15.771 29.7825C13.7031 29.7825 11.6346 29.8041 9.56673 29.7785C4.795 29.7191 0.942536 25.8717 0.908139 21.1024C0.877788 16.9641 0.877788 12.8251 0.908139 8.68682C0.943885 3.90605 4.83074 0.039059 9.60653 0.0154386C13.7085 -0.00548227 17.8112 -0.0048074 21.9132 0.0154386C26.6789 0.0383842 30.5914 3.89458 30.644 8.66927C30.6905 12.8973 30.6865 17.1267 30.6406 21.3548C30.5974 25.3561 27.3979 29.0044 23.4476 29.6367C22.8514 29.7319 22.2417 29.7744 21.6374 29.7798C19.6821 29.7974 17.7262 29.7866 15.7703 29.7866C15.771 29.7845 15.771 29.7825 15.771 29.7825ZM2.65159 14.9307C2.64148 14.9307 2.63136 14.9307 2.62124 14.9307C2.62124 16.8763 2.61113 18.822 2.62799 20.7676C2.63271 21.3048 2.66373 21.8515 2.77232 22.3752C3.47779 25.7745 6.32263 28.0562 9.86282 28.0657C13.7962 28.0758 17.7303 28.0683 21.6637 28.0677C22.6511 28.0677 23.6189 27.93 24.522 27.5217C27.4788 26.1855 28.8978 23.8255 28.9309 20.6354C28.9713 16.7447 28.9464 12.8528 28.9336 8.96216C28.9316 8.43712 28.8884 7.90195 28.7798 7.38905C28.0642 4.0228 25.2275 1.7404 21.7655 1.73433C17.7755 1.72758 13.7854 1.7296 9.79605 1.7377C9.35968 1.73838 8.91926 1.77752 8.48829 1.84366C5.38312 2.31944 2.79323 5.11339 2.66913 8.2522C2.58078 10.4745 2.65159 12.7043 2.65159 14.9307Z" fill="black"/>
<path d="M15.8071 7.6083C19.8356 7.64205 23.0595 10.9428 23.0271 15.0015C22.9954 18.9623 19.6751 22.2381 15.7417 22.1882C11.7031 22.1375 8.44819 18.8401 8.49607 14.8476C8.54464 10.8254 11.8272 7.57456 15.8071 7.6083ZM21.2992 14.8854C21.2911 11.8067 18.8084 9.32112 15.7525 9.33192C12.6952 9.34272 10.2126 11.8431 10.2173 14.9077C10.222 17.9817 12.7309 20.474 15.8085 20.4612C18.8421 20.449 21.3073 17.9453 21.2992 14.8854Z" fill="black"/>
<path d="M23.9086 9.01813C22.3446 9.02623 21.1427 7.83981 21.136 6.28087C21.1292 4.70775 22.3001 3.51458 23.8641 3.50108C25.385 3.48759 26.6712 4.73069 26.6826 6.22553C26.6948 7.77637 25.4686 9.01003 23.9086 9.01813ZM23.8884 7.26145C24.4907 7.25538 24.9203 6.83763 24.9223 6.25792C24.9237 5.69778 24.436 5.22132 23.8607 5.22065C23.3003 5.21997 22.814 5.71803 22.8261 6.28019C22.8383 6.84438 23.2969 7.26752 23.8884 7.26145Z" fill="black"/>
</svg>
