<svg width="30" height="30" viewBox="0 0 30 30" fill="none" xmlns="http://www.w3.org/2000/svg">
<path d="M14.9321 28.791C22.4656 28.791 28.5728 22.684 28.5728 15.1506C28.5728 7.61726 22.4656 1.51025 14.9321 1.51025C7.39853 1.51025 1.29138 7.61726 1.29138 15.1506C1.29138 22.684 7.39853 28.791 14.9321 28.791Z" stroke="black" stroke-width="2" stroke-miterlimit="10"/>
<path d="M12.1578 17.1929L12.0082 20.5435L14.1675 18.7159L12.1578 17.1929Z" fill="black"/>
<path d="M20.6564 9.19121L6.93027 14.4078C6.54008 14.5574 6.55077 15.1079 6.9463 15.2416L10.4847 16.4388L18.5451 11.5964L12.1577 17.1924L17.1286 20.9659C17.6471 21.356 18.3954 21.0942 18.5504 20.4635L21.239 9.71501C21.3245 9.36759 20.9878 9.06828 20.6564 9.19121Z" fill="black"/>
</svg>
