<svg width="36" height="31" viewBox="0 0 36 31" fill="none" xmlns="http://www.w3.org/2000/svg">
<path d="M34.0708 5.02995C33.0124 5.50761 31.8536 5.79266 30.7102 5.98527C31.251 5.89282 32.0467 4.92209 32.3634 4.52147C32.8502 3.92054 33.2519 3.23487 33.4759 2.49527C33.5068 2.43363 33.53 2.3643 33.4682 2.31807C33.3987 2.28725 33.3446 2.30266 33.2905 2.33348C32.0235 3.01145 30.7102 3.50452 29.3119 3.85121C29.196 3.88202 29.111 3.85121 29.0338 3.78187C28.9179 3.6586 28.8097 3.53533 28.6861 3.42748C28.099 2.9267 27.4655 2.54149 26.7548 2.24873C25.82 1.87123 24.8002 1.70944 23.7959 1.77107C22.8148 1.83271 21.8568 2.11006 20.9915 2.56461C20.1186 3.01915 19.346 3.6509 18.728 4.40591C18.0868 5.19174 17.6155 6.12394 17.376 7.11008C17.1443 8.0577 17.1597 8.99761 17.3065 9.96063C17.3297 10.1224 17.3142 10.1378 17.1674 10.1224C11.6978 9.31348 7.17067 7.36432 3.48562 3.18094C3.32339 2.99604 3.23841 2.99604 3.10707 3.19635C1.50018 5.60006 2.28045 9.46757 4.28907 11.3705C4.55946 11.6247 4.82985 11.879 5.13115 12.1101C5.02299 12.1332 3.68648 11.9868 2.48904 11.3705C2.3268 11.2703 2.24955 11.3243 2.2341 11.5092C2.21864 11.7711 2.24182 12.01 2.28045 12.2873C2.58947 14.7295 4.28135 16.9869 6.60671 17.8651C6.88483 17.9807 7.18612 18.0809 7.48742 18.1348C6.96209 18.2504 6.41358 18.3351 4.89938 18.2118C4.70625 18.1733 4.63672 18.2735 4.70625 18.4507C5.84189 21.5477 8.30632 22.4723 10.145 22.9961C10.3922 23.0424 10.6394 23.0424 10.8866 23.0963C10.8712 23.1194 10.8557 23.1194 10.8403 23.1425C10.23 24.0747 8.11318 24.7604 7.12432 25.1071C5.33201 25.7311 3.37747 26.0162 1.48472 25.8313C1.18343 25.7851 1.1139 25.7928 1.03665 25.8313C0.951666 25.8852 1.02892 25.9545 1.12163 26.0316C1.5079 26.2858 1.89417 26.5092 2.2959 26.725C3.50107 27.3644 4.7526 27.8652 6.06593 28.2273C12.8489 30.0917 20.4817 28.7204 25.5728 23.6818C29.5668 19.7219 30.9729 14.2596 30.9729 8.7896C30.9729 8.57388 31.2278 8.45832 31.3746 8.34275C32.4175 7.56463 33.2519 6.63242 34.0322 5.59235C34.2098 5.36123 34.2098 5.15322 34.2098 5.06847C34.2098 5.05306 34.2098 5.03765 34.2098 5.03765C34.2098 4.9452 34.2021 4.96831 34.0708 5.02995Z" stroke="black" stroke-width="2" stroke-miterlimit="10"/>
</svg>
